# xmcd CD database file
#
# Track frame offsets:
#	150
#	15655
#	30593
#	44681
#	58649
#	73686
#	88692
#	106570
#	121531
#	133997
#	147499
#	160438
#	176014
#	191444
#
# Disc length: 2742 seconds
#
# Revision: 0
# Processed by: cddbd v1.5.1PL0 Copyright (c) Steve Scherf et al.
# Submitted via: CDex 1.51
#
DISCID=c10ab40e
DTITLE=Kad - Société
DYEAR=2005
DGENRE=Jazz
TTITLE0=Ecoute le vent
TTITLE1=Come as you are
TTITLE2=Safaya
TTITLE3=I love Paris
TTITLE4=Trouver un ange
TTITLE5=J´aime mon lit
TTITLE6=Société
TTITLE7=Le Déserteur
TTITLE8=Bidonville
TTITLE9=Croques croques moi
TTITLE10=Cómo te quiero
TTITLE11=Contre-courant
TTITLE12=Vue sur la lune
TTITLE13=Dámelo
EXTD=YEAR: 2005
EXTT0=
EXTT1=
EXTT2=
EXTT3=
EXTT4=
EXTT5=
EXTT6=
EXTT7=
EXTT8=
EXTT9=
EXTT10=
EXTT11=
EXTT12=
EXTT13=
PLAYORDER=
